# File created by Blade
# Date/Time:  Mon Sep 22 19:00:17 2014
# Frame Rate: 120.000 fps
#------------------------------------------------------
:FULLY-SPECIFIED
:DEGREES
2553
root -0.675883 32.842469 -3.642319 39.724871 -0.380044 0.648255
Spine -45.399005 -1.743359 -0.967260
Head 10.164010 -13.670317 -8.085259
LeftShoulder -13.399335 40.273629 9.812384
LeftArm 71.111237 33.382236 -52.005849
LeftForeArm 9.275267 -0.000000 7.720674
LeftHand -19.075966 -0.000000 -5.709858
LeftHandThumb1 -26.253704 0.000000 33.147579
RightShoulder -26.567507 -1.192958 -53.614131
RightArm -238.426584 36.087915 -229.412865
RightForeArm 61.574719 -0.000000 119.904651
RightHand 21.430487 -0.000000 -7.423199
RightHandThumb1 -24.326973 -0.000000 -32.862282
LeftUpLeg -33.653442 6.505252 -1.996014
LeftLeg -0.614072 -0.000000 0.000000
LeftFoot -1.843496 0.501567 -3.407960
LeftToeBase 1.972454 -0.000000 -0.000000
RightUpLeg -34.501237 -11.083270 5.438361
RightLeg -2.376533 -0.000000 0.000000
RightFoot -4.856038 -3.292871 19.558331
RightToeBase 16.339140 -0.000000 -0.000000
2554
root -0.679419 32.843986 -3.633757 39.715885 -0.325965 0.634923
Spine -45.449290 -1.636383 -1.056148
Head 10.438567 -13.768718 -8.089191
LeftShoulder -13.297963 40.181897 9.922441
LeftArm 71.172203 33.347307 -51.908662
LeftForeArm 9.146233 -0.000000 7.683107
LeftHand -19.124261 -0.000000 -5.775838
LeftHandThumb1 -26.253704 0.000000 33.147579
RightShoulder -26.602746 -0.772296 -53.517436
RightArm -238.407492 35.413519 -228.488679
RightForeArm 63.183624 -0.000000 120.662760
RightHand 21.990315 -0.000000 -7.795661
RightHandThumb1 -24.326973 -0.000000 -32.862282
LeftUpLeg -33.624932 6.516014 -1.969963
LeftLeg -0.638784 -0.000000 0.000000
LeftFoot -1.823854 0.454261 -3.427282
LeftToeBase 1.972337 -0.000000 -0.000000
RightUpLeg -34.455977 -11.134814 5.495831
RightLeg -2.421511 -0.000000 0.000000
RightFoot -4.813379 -3.249325 19.602866
RightToeBase 16.366587 -0.000000 -0.000000
2555
root -0.682077 32.845227 -3.625833 39.709969 -0.247142 0.623332
Spine -45.492710 -1.533186 -1.146439
Head 10.676345 -13.895883 -8.109281
LeftShoulder -13.223061 40.078061 10.001168
LeftArm 71.268838 33.300980 -51.789482
LeftForeArm 9.212084 -0.000000 7.605515
LeftHand -19.083564 -0.000000 -5.854887
LeftHandThumb1 -26.253704 0.000000 33.147579
RightShoulder -26.638607 -0.423772 -53.367294
RightArm -238.406094 34.910218 -227.675058
RightForeArm 65.102288 0.000000 121.376586
RightHand 22.442421 -0.000000 -7.958205
RightHandThumb1 -24.326973 -0.000000 -32.862282
LeftUpLeg -33.601991 6.504609 -1.932356
LeftLeg -0.667591 -0.000000 0.000000
LeftFoot -1.807856 0.423547 -3.422022
LeftToeBase 2.006392 -0.000000 -0.000000
RightUpLeg -34.411222 -11.199861 5.560351
RightLeg -2.466511 -0.000000 0.000000
RightFoot -4.776000 -3.250254 19.559826
RightToeBase 16.324371 -0.000000 -0.000000
2556
root -0.685974 32.847237 -3.616777 39.687045 -0.112142 0.622815
Spine -45.522353 -1.479698 -1.216447
Head 10.945042 -14.003912 -8.116617
LeftShoulder -13.105631 39.911516 10.125962
LeftArm 71.246059 33.306562 -51.759442
LeftForeArm 9.181311 -0.000000 7.592208
LeftHand -19.147129 -0.000000 -5.870765
LeftHandThumb1 -26.253704 0.000000 33.147579
RightShoulder -26.524582 -2.156034 -51.723520
RightArm -235.888906 32.970206 -226.244157
RightForeArm 66.881271 0.000000 121.827441
RightHand 22.742111 -0.000000 -8.225766
RightHandThumb1 -24.326973 -0.000000 -32.862282
LeftUpLeg -33.564798 6.454884 -1.871562
LeftLeg -0.698744 -0.000000 0.000000
LeftFoot -1.764612 0.373898 -3.411056
LeftToeBase 1.997449 -0.000000 -0.000000
RightUpLeg -34.347606 -11.322707 5.653976
RightLeg -2.509034 -0.000000 0.000000
RightFoot -4.746332 -3.216072 19.600751
RightToeBase 16.297838 -0.000000 -0.000000
2557
root -0.689183 32.848020 -3.608466 39.675760 0.000507 0.615971
Spine -45.546495 -1.396525 -1.314833
Head 11.131589 -14.130143 -8.121250
LeftShoulder -13.044751 39.783703 10.217142
LeftArm 71.249632 33.247023 -51.762253
LeftForeArm 9.288807 -0.000000 7.605735
LeftHand -19.020933 -0.000000 -6.162887
LeftHandThumb1 -26.253704 0.000000 33.147579
RightShoulder -26.572987 -2.250868 -51.277676
RightArm -235.594782 32.562014 -225.566318
RightForeArm 68.672149 -0.000000 122.402221
RightHand 23.138832 0.000000 -8.238453
RightHandThumb1 -24.326973 -0.000000 -32.862282
LeftUpLeg -33.542317 6.456103 -1.842219
LeftLeg -0.724213 -0.000000 0.000000
LeftFoot -1.733145 0.288424 -3.397942
LeftToeBase 1.934169 -0.000000 -0.000000
RightUpLeg -34.291272 -11.394326 5.718990
RightLeg -2.553147 -0.000000 0.000000
RightFoot -4.736377 -3.239952 19.571797
RightToeBase 16.333164 -0.000000 -0.000000
2558
root -0.692329 32.849178 -3.601080 39.666988 0.140061 0.620167
Spine -45.574769 -1.351802 -1.393785
Head 11.365585 -14.276892 -8.177158
LeftShoulder -12.991130 39.680911 10.283061
LeftArm 71.271820 33.184388 -51.727743
LeftForeArm 9.187543 -0.000000 7.611540
LeftHand -19.153135 -0.000000 -6.095550
LeftHandThumb1 -26.253704 0.000000 33.147579
RightShoulder -26.663313 -2.201145 -50.955711
RightArm -235.631480 32.353448 -225.046656
RightForeArm 70.195369 0.000000 123.001716
RightHand 23.521127 0.000000 -8.616496
RightHandThumb1 -24.326973 -0.000000 -32.862282
LeftUpLeg -33.523547 6.439036 -1.811559
LeftLeg -0.758590 -0.000000 0.000000
LeftFoot -1.697688 0.188151 -3.408964
LeftToeBase 1.926874 -0.000000 -0.000000
RightUpLeg -34.238169 -11.469575 5.775648
RightLeg -2.593260 -0.000000 0.000000
RightFoot -4.722431 -3.247686 19.620380
RightToeBase 16.262561 -0.000000 -0.000000
2559
root -0.695750 32.849552 -3.594600 39.683206 0.307380 0.619219
Spine -45.615476 -1.302865 -1.466021
Head 11.556840 -14.373468 -8.172366
LeftShoulder -12.918594 39.536669 10.377505
LeftArm 71.245244 33.150718 -51.724013
LeftForeArm 9.127699 -0.000000 7.664901
LeftHand -19.178198 -0.000000 -6.047453
LeftHandThumb1 -26.253704 0.000000 33.147579
RightShoulder -26.779808 -2.225538 -50.588430
RightArm -235.669471 32.301429 -224.650176
RightForeArm 71.341565 -0.000000 123.553749
RightHand 23.686829 -0.000000 -8.996992
RightHandThumb1 -24.326973 -0.000000 -32.862282
LeftUpLeg -33.536837 6.396684 -1.758371
LeftLeg -0.786754 -0.000000 0.000000
LeftFoot -1.669813 0.113879 -3.383752
LeftToeBase 1.931628 -0.000000 -0.000000
RightUpLeg -34.207474 -11.551375 5.851762
RightLeg -2.634896 -0.000000 0.000000
RightFoot -4.725288 -3.305608 19.620766
RightToeBase 16.259752 -0.000000 -0.000000
2560
root -0.699196 32.850623 -3.586918 39.711763 0.498004 0.627987
Spine -45.684899 -1.275445 -1.551017
Head 11.796680 -14.631420 -8.241349
LeftShoulder -12.823590 39.434456 10.499021
LeftArm 71.177139 33.066155 -51.817769
LeftForeArm 9.210669 -0.000000 7.760474
LeftHand -19.145937 -0.000000 -6.165542
LeftHandThumb1 -26.253704 0.000000 33.147579
RightShoulder -26.896286 -2.334469 -50.158575
RightArm -235.700770 32.321780 -224.358048
RightForeArm 72.449304 -0.000000 124.081346
RightHand 24.069188 -0.000000 -9.687668
RightHandThumb1 -24.326973 -0.000000 -32.862282
LeftUpLeg -33.559383 6.334537 -1.702495
LeftLeg -0.821102 -0.000000 0.000000
LeftFoot -1.632095 0.029222 -3.383866
LeftToeBase 1.952260 -0.000000 -0.000000
RightUpLeg -34.173170 -11.694592 5.970109
RightLeg -2.729121 -0.000000 0.000000
RightFoot -4.687472 -3.300132 19.623186
RightToeBase 16.272872 -0.000000 -0.000000
2561
root -0.702667 32.851588 -3.581552 39.743765 0.672357 0.630110
Spine -45.734091 -1.255239 -1.607090
Head 11.998538 -14.782289 -8.314185
LeftShoulder -12.802689 39.378100 10.547463
LeftArm 71.164955 32.979144 -51.820374
LeftForeArm 9.129886 -0.000000 7.926740
LeftHand -19.227180 0.000000 -6.016429
LeftHandThumb1 -26.253704 0.000000 33.147579
RightShoulder -27.044717 -2.533677 -49.713342
RightArm -235.769478 32.375784 -224.127310
RightForeArm 73.623231 -0.000000 124.639840
RightHand 24.607849 -0.000000 -10.425311
RightHandThumb1 -24.326973 -0.000000 -32.862282
LeftUpLeg -33.586189 6.284127 -1.649274
LeftLeg -0.859883 -0.000000 0.000000
LeftFoot -1.584978 -0.054227 -3.361569
LeftToeBase 1.906950 -0.000000 -0.000000
RightUpLeg -34.165286 -11.767628 6.043424
RightLeg -2.758465 -0.000000 0.000000
RightFoot -4.711362 -3.367482 19.618980
RightToeBase 16.294878 -0.000000 -0.000000
